<?xml version="1.0" standalone="no"?>
<!DOCTYPE svg PUBLIC "-//W3C//DTD SVG 1.1//EN" "http://www.w3.org/Graphics/SVG/1.1/DTD/svg11.dtd" >
<svg xmlns="http://www.w3.org/2000/svg">
<metadata>
Created by FontForge 20120731 at Tue Apr 25 15:04:06 2017
 By admin
</metadata>
<defs>
<font id="iconfont" horiz-adv-x="1024" >
  <font-face 
    font-family="iconfont"
    font-weight="500"
    font-stretch="normal"
    units-per-em="1024"
    panose-1="2 0 6 3 0 0 0 0 0 0"
    ascent="896"
    descent="-128"
    x-height="792"
    bbox="-1 -212 1066.77 897"
    underline-thickness="0"
    underline-position="0"
    unicode-range="U+0078-E83E"
  />
<missing-glyph 
 />
    <glyph glyph-name=".notdef" 
 />
    <glyph glyph-name=".notdef" 
 />
    <glyph glyph-name=".null" horiz-adv-x="0" 
 />
    <glyph glyph-name="nonmarkingreturn" horiz-adv-x="341" 
 />
    <glyph glyph-name="x" unicode="x" horiz-adv-x="1001" 
d="M281 543q-27 -1 -53 -1h-83q-18 0 -36.5 -6t-32.5 -18.5t-23 -32t-9 -45.5v-76h912v41q0 16 -0.5 30t-0.5 18q0 13 -5 29t-17 29.5t-31.5 22.5t-49.5 9h-133v-97h-438v97zM955 310v-52q0 -23 0.5 -52t0.5 -58t-10.5 -47.5t-26 -30t-33 -16t-31.5 -4.5q-14 -1 -29.5 -0.5
t-29.5 0.5h-32l-45 128h-439l-44 -128h-29h-34q-20 0 -45 1q-25 0 -41 9.5t-25.5 23t-13.5 29.5t-4 30v167h911zM163 247q-12 0 -21 -8.5t-9 -21.5t9 -21.5t21 -8.5q13 0 22 8.5t9 21.5t-9 21.5t-22 8.5zM316 123q-8 -26 -14 -48q-5 -19 -10.5 -37t-7.5 -25t-3 -15t1 -14.5
t9.5 -10.5t21.5 -4h37h67h81h80h64h36q23 0 34 12t2 38q-5 13 -9.5 30.5t-9.5 34.5q-5 19 -11 39h-368zM336 498v228q0 11 2.5 23t10 21.5t20.5 15.5t34 6h188q31 0 51.5 -14.5t20.5 -52.5v-227h-327z" />
    <glyph glyph-name="QQ" unicode="&#xe607;" 
d="M971 143l-2 18l-3 17l-3 9l-2 9l-3 9l-4 10l-3 10l-4 9l-8 16l-6 14l-7 13l-5 11l-7 11l-5 9l-10 15l-12 19l-3 5l-1 2v1l2 7l3 6l2 11l2 6v6v5v5v6l-1 4l-2 10l-2 9l-3 8l-3 8l-4 7l-3 7l-3 6l-6 9l-2 3v2l-3 18l-1 11l-2 14l-3 15l-4 17l-3 9l-2 8l-3 9l-3 10l-3 9
l-4 10l-8 19l-5 9l-6 10l-5 9l-6 10l-7 10l-7 8l-8 10l-8 8l-8 8l-9 9l-5 3l-5 4l-11 7l-12 8l-12 7l-13 7l-13 6l-13 6l-14 4l-15 4l-13 4l-15 3l-13 4l-15 1l-14 2l-15 2h-15h-14h-14l-14 -1l-14 -2l-14 -2l-13 -2l-14 -3l-13 -3l-13 -4l-12 -4l-12 -4l-12 -6l-12 -5
l-10 -6l-10 -6l-10 -7l-10 -8l-8 -7l-12 -12l-10 -10l-10 -11l-9 -11l-9 -11l-7 -10l-7 -11l-4 -5l-3 -6l-7 -10l-5 -10l-5 -10l-4 -10l-4 -9l-3 -9l-3 -9l-4 -8l-4 -16l-3 -15l-1 -12l-2 -11v-8v-7v-6l-3 -3l-3 -4l-2 -4l-2 -4l-2 -9l-3 -9v-7l-1 -6v-6l-6 -8l-4 -9l-3 -8
l-2 -7l-2 -7l-2 -6v-6v-6v-5l1 -4l2 -7l1 -6l-3 -3l-9 -6l-12 -11l-7 -7l-7 -6l-5 -5l-4 -5l-9 -9l-8 -10l-7 -8l-8 -11l-7 -11l-7 -12l-7 -11l-5 -11l-5 -11l-4 -10l-4 -11l-3 -11l-3 -11l-3 -10l-2 -10l-1 -9l-2 -10l-1 -18v-17v-7l1 -7l2 -13l1 -6l2 -5l2 -6l1 -3l3 -7
l2 -2l2 -3h1h1h1h7l7 2l7 3l6 4l6 4l5 5l6 5l5 6l5 6l4 6l4 4l2 6l5 8l2 4l1 2v3l1 2h1l2 1h1v-1h1h1l3 -12l2 -10l4 -10l4 -9l4 -9l5 -8l4 -9l4 -7l5 -7l3 -6l10 -12l9 -11l8 -8l8 -7l7 -6l11 -10l4 -2l2 -2v-1l-1 -1h-1h-2l-8 -1l-7 -1l-6 -1l-7 -1l-5 -2l-6 -2l-5 -2
l-4 -3l-5 -1l-3 -3l-3 -2l-4 -3l-4 -5l-2 -3l-2 -2l-3 -6l-2 -5l-1 -5l-1 -4v-6v-3l-1 -4v-4l-1 -4v-3l1 -4l1 -4l2 -7l2 -3l2 -3l2 -3l3 -3l3 -3l2 -3l7 -5l8 -4l8 -5l9 -3l9 -4l11 -2l10 -4l11 -2l12 -2l11 -2l12 -1l24 -3h24h23h10h10h11l9 1l9 1l8 1l13 2l9 3l9 2l17 7
l8 3l7 3l12 7l10 6l8 5l6 5l9 -1l7 -1l14 -1h6h6l4 -1l4 -1l7 -3l8 -2l14 -5l15 -5l14 -4l14 -3l15 -4l15 -2l15 -2l14 -2l14 -1l15 -1h13h14h13l13 1l13 1l12 2l11 3l11 2l11 3l5 1l5 2l9 3l8 4l8 4l8 4l6 5l3 3l3 4l4 4l4 6l1 3l1 3l2 3l1 3v4l1 3l-1 5l-1 4l-2 5l-1 4
l-3 5l-3 5l-3 3l-4 4l-9 7l-10 8l-10 5l-10 6l-23 12l-6 3l-2 2l-1 1l12 11l5 6l4 5l8 12l7 11l6 11l6 10l8 20l7 16l4 12l2 4l2 3l2 2h1h1l6 -12l5 -12l4 -7l4 -5l4 -7l5 -7l4 -5l3 -2l2 -3l2 -1l3 -2l4 -2l3 -1h2h2l2 1l4 1l3 2l3 2l3 3l3 4l2 3l3 5l2 3l2 6l2 4l3 11
l2 12l2 14l1 8v6v7v9z" />
    <glyph glyph-name="home" unicode="&#xe619;" 
d="M1021 280h-1015l511 533l219 -232v96h133v-223h-13l165 -174v0zM869 -163h-265v264h-176v-264h-265v441h706v-441v0z" />
    <glyph glyph-name="shizhong" unicode="&#xe60c;" 
d="M513 807q-103 0 -196.5 -40.5t-161.5 -108t-108 -161.5t-40 -196.5t40 -196.5t108 -161.5t161.5 -107.5t196.5 -40t196.5 40t161 107.5t107.5 161.5t40 196.5t-40 196.5t-107.5 161.5t-161 108t-196.5 40.5zM512.5 -107q-110.5 0 -204.5 54.5t-148.5 148.5t-54.5 204.5
t54.5 204.5t148.5 149t204.5 55t204.5 -55t148.5 -149t54.5 -204.5t-54.5 -204.5t-148.5 -148.5t-204.5 -54.5zM555 324v314h-95v-413h396v99h-301z" />
    <glyph glyph-name="arrow-down-outline" unicode="&#xe63a;" 
d="M750 168v1v0v0v-1zM725 181v0v0v0v0zM512 688q-109 0 -201 -53.5t-145.5 -145.5t-53.5 -201t53.5 -201t145.5 -145.5t201 -53.5t201 53.5t145.5 145.5t53.5 201t-53.5 201t-145.5 145.5t-201 53.5zM512 -67q-96 0 -178 47.5t-129.5 129.5t-47.5 178t47.5 178t129.5 129.5
t178 47.5t178 -47.5t129.5 -129.5t47.5 -178t-47.5 -178t-129.5 -129.5t-178 -47.5zM706 397l-195 -194l-193 193q-6 6 -15 5.5t-15.5 -7t-7 -15.5t5.5 -15l225 -225l226 226q7 7 6.5 16t-7 15.5t-15.5 6.5t-15 -6z" />
    <glyph glyph-name="my" unicode="&#xe608;" 
d="M997 -81v-116h-970v116l323 207v81q-30 0 -55.5 60.5t-25.5 101.5v162q0 100 71.5 171t171.5 71t171.5 -71t71.5 -171v-162q0 -41 -25.5 -101.5t-55.5 -60.5v-81z" />
    <glyph glyph-name="rou" unicode="&#xe618;" 
d="M981 388q0 46 -14 89q-32 99 -122 159t-204 60q-58 0 -114 -16l-2 -1l-260 -123q-63 -19 -114.5 -59t-77.5 -93q-29 -59 -28 -158v-132q-2 -6 0 -13q1 -5 4 -10q30 -83 105.5 -130.5t171.5 -47.5q62 0 106 8l291 41l2 1q122 36 195 132q46 61 60 134q3 3 3.5 79t-2.5 80z
M611 481q21 41 68 55q18 5 35 5q36 0 64.5 -19t38.5 -51q13 -38 -7 -75q-21 -41 -68 -55q-18 -5 -35 -5q-36 0 -64.5 19.5t-38.5 50.5q-13 38 7 75zM874 130q-61 -80 -163 -112l-294 -41q-245 -24 -331 126v40q48 -64 113 -97.5t141 -31.5v0q32 0 385 55q113 34 184 121
q-13 -32 -35 -60zM707 393q9 0 18 3q24 7 34 27q8 15 3 30q-4 14 -17.5 22.5t-30.5 8.5q-9 0 -18 -3q-24 -7 -34 -27q-8 -15 -3 -30q4 -14 17.5 -22.5t30.5 -8.5z" />
    <glyph glyph-name="yuyin" unicode="&#xe660;" 
d="M511.5 188q69.5 0 118.5 49t49 119v223q0 70 -49 119t-118.5 49t-118.5 -49t-49 -119v-223q0 -70 49 -119t118.5 -49zM819 342v0v0q0 17 -12.5 29.5t-29.5 12.5t-29.5 -12.5t-12.5 -29.5v0q0 -93 -65.5 -158.5t-158 -65.5t-158 65.5t-65.5 158.5v0q0 17 -12 29.5
t-29.5 12.5t-30 -12.5t-12.5 -29.5v0v0q0 -116 76.5 -202.5t189.5 -101.5v-101h-140q-17 0 -29.5 -12.5t-12.5 -29.5t12.5 -29.5t29.5 -12.5h363q18 0 30 12.5t12 29.5t-12 29.5t-30 12.5h-139v101q113 15 189 101.5t76 202.5z" />
    <glyph glyph-name="jinyanjinliao206" unicode="&#xe61e;" 
d="M263 171q1 -4 2.5 -11t8.5 -27.5t17 -38.5t29.5 -40.5t44 -38.5t63 -27t84.5 -11q47 0 86 10.5t63.5 27.5t44 38t29.5 41.5t16 37.5t8 28l2 11h-249h-249zM512 812q-139 0 -257 -68.5t-186.5 -186.5t-68.5 -257t68.5 -257t186.5 -186.5t257 -68.5t257 68.5t186.5 186.5
t68.5 257t-69.5 257t-187.5 186.5t-255 68.5zM512 -152q-92 0 -175.5 36t-144 96.5t-96.5 144t-36 175.5t36 175.5t96.5 144t144 96.5t175.5 36t175.5 -36t144 -96.5t96.5 -144t36 -175.5t-36 -175.5t-96.5 -144t-144 -96.5t-175.5 -36zM348 315q26 0 43 16.5t17 43.5v0v0
q0 24 -15 39q-2 2 -5 3.5t-4 3t-1 3.5q-20 10 -35 10q-26 0 -43 -16.5t-17 -43t17 -43t43 -16.5zM676 375zM616 374.5q0 24.5 17.5 42t42.5 17.5t42.5 -17.5t17.5 -42t-17.5 -42t-42.5 -17.5t-42.5 17.5t-17.5 42z" />
    <glyph glyph-name="duihao" unicode="&#xe606;" 
d="M512 896q-139 0 -257 -68.5t-186.5 -186.5t-68.5 -257t68.5 -257t186.5 -186.5t257 -68.5t257 68.5t186.5 186.5t68.5 257t-68.5 257t-186.5 186.5t-257 68.5zM475 111q-58 74 -122.5 127.5t-113.5 71.5l153 95l74 -147q5 12 14 33t40 78t64.5 105.5t86 101.5t105.5 81
q-1 -15 -5 -50t-5 -54t3.5 -48.5t15.5 -56.5q-39 -9 -104 -71.5t-121 -137t-85 -128.5z" />
    <glyph glyph-name="pingguo" unicode="&#xe7a2;" 
d="M370 668q59 0 100.5 25t41.5 61t-41.5 61.5t-100.5 25.5t-100.5 -25.5t-41.5 -61.5t41.5 -61t100.5 -25zM515 612h57q-3 15 -3 29q0 51 32 89.5t81 49.5h0.5h0.5q12 0 20 8.5t8 20t-8 20t-20 8.5v1q-73 -11 -122 -66.5t-49 -130.5q0 -9 3 -29v0v0zM679 612q-8 0 -19.5 -2
t-25.5 -6.5t-26 -9t-29 -11.5t-25 -10.5t-24 -11t-18 -7.5q-132 58 -171 58q-76 0 -129 -39t-77 -102t-24 -144q0 -30 7 -63q23 -144 134.5 -240.5t259.5 -96.5q147 0 258 95.5t135 238.5q8 35 8 66q0 81 -25 144t-78.5 102t-130.5 39v0v0zM397 477q-43 -20 -72 -57.5
t-37 -84.5q-1 -11 -9 -19.5t-20 -8.5t-20 8.5t-8 20.5v7q11 62 50 111.5t96 76.5q6 3 12 3q12 0 20.5 -8.5t8.5 -20.5q0 -10 -6 -17.5t-15 -10.5v0zM397 477z" />
    <glyph glyph-name="iconfontzuojiantou" unicode="&#xe6a8;" 
d="M403 749l-320 -320q-19 -18 -19 -45t19 -45l320 -320q18 -19 45 -19t45.5 18.5t18.5 45.5t-19 45l-211 211h614q27 0 45.5 18.5t18.5 45.5t-18.5 45.5t-45.5 18.5h-614l211 211q19 19 19 45.5t-18.5 45t-45.5 18.5t-45 -19z" />
    <glyph glyph-name="aims" unicode="&#xe616;" 
d="M918 342h-45q-14 -126 -103.5 -215.5t-215.5 -103.5v-45q0 -17 -12.5 -29.5t-29.5 -12.5t-29.5 12.5t-12.5 29.5v45q-126 14 -215.5 103.5t-103.5 215.5h-45q-17 0 -29.5 12.5t-12.5 29.5t12.5 29.5t29.5 12.5h45q14 126 103.5 215.5t215.5 103.5v45q0 17 12.5 29.5
t29.5 12.5t29.5 -12.5t12.5 -29.5v-45q126 -14 215.5 -103.5t103.5 -215.5h45q17 0 29.5 -12.5t12.5 -29.5t-12.5 -29.5t-29.5 -12.5zM708 426h81q-14 91 -79 156t-156 79v-81q0 -17 -12.5 -29.5t-29.5 -12.5t-29.5 12.5t-12.5 29.5v81q-91 -14 -156 -79t-79 -156h81
q17 0 29.5 -12.5t12.5 -29.5t-12.5 -29.5t-29.5 -12.5h-81q14 -91 79 -156t156 -79v81q0 17 12.5 29.5t29.5 12.5t29.5 -12.5t12.5 -29.5v-81q91 14 156 79t79 156h-81q-17 0 -29.5 12.5t-12.5 29.5t12.5 29.5t29.5 12.5zM512 342q-17 0 -29.5 12.5t-12.5 29.5t12.5 29.5
t29.5 12.5t29.5 -12.5t12.5 -29.5t-12.5 -29.5t-29.5 -12.5z" />
    <glyph glyph-name="camera" unicode="&#xe675;" 
d="M512 507q-69 0 -118 -49t-49 -118t49 -118t118 -49t118 49t49 118t-49 118t-118 49v0zM913 633h-175q-5 15 -11.5 30.5t-17.5 36.5t-26.5 34t-31.5 13h-278q-15 0 -30 -13t-26.5 -34t-19 -36.5t-12.5 -30.5h-174q-25 0 -42.5 -18.5t-17.5 -44.5v-488q0 -26 17.5 -44.5
t42.5 -18.5h802q25 0 42 18.5t17 44.5v488q0 26 -17 44.5t-42 18.5v0zM512 130q-87 0 -148 61.5t-61 148t61 148t147.5 61.5t148 -61.5t61.5 -148t-61.5 -148t-147.5 -61.5v0zM812 507q-15 0 -25 10.5t-10 25t10 24.5t24.5 10t25 -10t10.5 -24.5t-10.5 -25t-24.5 -10.5v0z
M256 687q0 -9 -7 -16t-16 -7h-105q-9 0 -16 7t-7 16v0q0 9 7 16t16 7h105q9 0 16 -7t7 -16v0v0zM256 687z" />
    <glyph glyph-name="close" unicode="&#xe600;" horiz-adv-x="1025" 
d="M511 896q-104 0 -198.5 -41t-163 -109.5t-109 -163.5t-40.5 -199t41 -198.5t109.5 -163t163.5 -109t199 -40.5t198.5 41t163 109.5t109 163.5t40.5 199t-41 198.5t-109.5 163t-163.5 109t-199 40.5v0zM759 181q8 -8 8 -19t-8 -19t-19 -8t-19 8l-209 209l-209 -209
q-8 -8 -19 -8t-18.5 7.5t-7.5 19t7 18.5l209 210l-209 209q-8 7 -8 18.5t8 19t19 7.5t19 -8l209 -208l209 209q8 8 19 8t18.5 -8t7.5 -19t-7 -19l-209 -209zM759 181z" />
    <glyph glyph-name="tao" unicode="&#xe635;" 
d="M228.5 513q31.5 0 54.5 20.5t23 49t-23 48.5t-54.5 20t-54 -20t-22.5 -48.5t22.5 -49t54 -20.5zM165 485l-49 -74l90 -56q1 -1 3 -2t7.5 -5.5t10.5 -9.5t9.5 -12.5t6.5 -16t1 -19.5t-7 -23q-12 -24 -51.5 -67t-72.5 -74.5l-33 -31.5l117 -73q25 55 45 97.5t26 54.5
t11.5 26t13.5 37q17 47 16 85.5t-26 63.5q-34 34 -51 48.5t-67 51.5zM922 505q0 4 -2 11t-13 25t-28 32.5t-52.5 28t-81.5 17.5t-119 -5t-161 -34l28 53l-108 30q-2 -6 -5.5 -16t-15 -38t-24.5 -53t-34 -54t-42 -47q4 -3 12 -7.5t24.5 -14t27 -15.5t10.5 -5q30 30 57 64
q23 10 51 22q-46 -83 -85 -124l45 -40q31 30 65 66h39v-66h-151v-53h151v-127h-6q-41 2 -52 19q-6 9 -7 22t1.5 32t2.5 23h-104l-4 -1q0 -4 -1 -10t-2 -24t0 -33.5t8 -35t19 -33.5t34 -23t52 -8q162 -4 256 68l15 -57l85 36l-57 141l-70 -21l13 -49q-25 -19 -60 -30v111h147
v53h-147v66h147v53h-262q33 39 38 57l-46 13q306 109 304 -57v-303q0 -2 0.5 -6t-0.5 -14.5t-4 -20t-11 -21t-19 -19.5t-30 -12.5t-43 -3.5l-65 14l-15 -61q6 -2 16 -4t39.5 -6t56.5 -4.5t61 6.5t59 22t44.5 46t24.5 75q10 108 8.5 185.5t-7.5 120.5z" />
    <glyph glyph-name="shaozidao" unicode="&#xe636;" 
d="M801 422q33 26 95.5 91t86.5 95q9 12 9 28.5t-7 32t-24 26t-39 8.5q9 25 -11.5 50.5t-56.5 21.5q0 36 -30.5 57t-71.5 -3q-32 -29 -98 -96.5t-82 -90.5q-15 -16 -24 -33.5t-12.5 -28.5t-3.5 -28t1 -20.5t3 -19.5q-18 18 -99 99.5t-130.5 128t-85.5 73.5q-17 8 -36 8.5
t-41 -13.5t-38 -40q0 -1 -1 -4q-40 -91 26 -197q99 -130 209 -228q-5 -4 -78 -75t-126.5 -125t-72.5 -79q-12 -25 -10 -50t14.5 -42t30.5 -29.5t38 -12t37 9.5q19 15 48.5 42t57 54.5t62.5 63t57 58.5t48.5 51t29.5 32q17 -10 24 -12q1 0 9.5 -3t12 -4t12 -3t14.5 -2t13.5 1
t14.5 4q25 -20 133 -133.5t135 -128.5q42 -33 87 -4q22 15 33.5 38.5t11 45t-10.5 34.5q-9 14 -119 128.5t-178 182.5q37 -4 75.5 9.5t57.5 31.5v0zM153 -26q-24 -12 -44.5 9.5t-9.5 53.5q3 9 121.5 126.5t141.5 137.5q7 -7 30.5 -26t33.5 -29q-41 -46 -147 -152.5
t-126 -119.5v0zM926 45q7 -12 1.5 -27.5t-14.5 -23.5q-22 -23 -50 -3q-18 13 -49 43t-101 102t-137 138q-15 -17 -26 -18.5t-24 4.5q-17 5 -42 19t-70 45t-105 92t-120 141q-55 67 -60 131v4q0 22 5.5 39t14.5 26.5t19 14.5t20 4t17 -8q47 -35 229.5 -217t194.5 -193
q62 -63 175 -181t122 -132v0zM631 437q-48 30 -58 96q-8 42 27 78q25 34 84 94t92 90q6 6 19 0.5t13 -22.5q-41 -42 -78 -79t-53.5 -53t-30.5 -31.5t-23 -29.5q-12 -25 5.5 -36t36.5 4q36 29 68 60t67.5 68t54.5 55q9 1 17.5 -4t4.5 -14q-11 -15 -80 -83t-86 -94
q-16 -28 -10 -42.5t24.5 -13.5t32.5 16q30 24 88.5 86.5t74.5 76.5q11 4 19.5 -6t4.5 -22q-6 -6 -33.5 -36t-48.5 -52.5t-47.5 -49t-43.5 -39.5q-27 -20 -55.5 -27t-48.5 -3.5t-37 13.5v0zM631 437z" />
    <glyph glyph-name="unie62c" unicode="&#xe646;" horiz-adv-x="1025" 
d="M755 832q-26 0 -52 -7t-49 -19t-44.5 -29t-39.5 -37t-32.5 -42t-25.5 -45q-35 74 -101 126.5t-142 52.5q-111 0 -190 -79t-79 -190q0 -62 17 -116.5t48.5 -98.5t70.5 -84.5t88 -83t95.5 -84t99 -97.5t93.5 -115q39 58 90 114.5t97.5 99t96 85.5t89 84t72 85t50 97.5
t17.5 113.5q0 111 -79 190t-190 79v0z" />
    <glyph glyph-name="shicai" unicode="&#xe6f3;" 
d="M189 589q-2 2 -13 11.5t-17 14.5q-22 21 -38 56q-7 13 -2.5 23t18.5 14q52 13 96 -3q11 -4 51 -26q10 -5 10.5 -4.5t2.5 9.5q12 43 32 64q13 13 27 22q8 4 16.5 1.5t13.5 -10.5q4 -8 2 -17t-10 -14q-14 -10 -28 -36q-3 -7 -4 -17q2 2 5.5 4.5t8 5.5t5.5 5q42 30 78 36
q23 4 49 -3q16 -5 15 -22q-2 -35 -21 -63q-14 -19 -23 -28q-4 -4 -14 -11h18q37 3 80 -12q27 -10 54 -29q29 -21 57 -66q9 -14 11 -16q3 -4 9 -1q50 25 106 3q10 -4 20 5q36 36 85 27q14 -3 27 2q42 15 75 3q21 -8 29 -31t-3 -43q-5 -7 -13 -10t-16 0q-7 2 -11 9t-3 15
q1 12 -6 17t-19 1q-6 -3 -5 -13v-23q-4 -25 -24.5 -34.5t-41.5 3.5q-17 12 -16 42q0 1 0.5 3.5t0.5 3.5q0 5 -2.5 7t-6.5 0q-10 -5 -17 -13q-1 -2 -1 -5.5t1 -5.5q39 -55 24 -140q-9 -51 -54 -110q-34 -47 -86 -85q-63 -47 -139 -74q-72 -25 -155 -33q-85 -8 -184 7
q-72 10 -117 41q-42 31 -49 70q-8 49 27 76q7 5 7 8t-7 8q-2 1 -12.5 8.5t-15.5 12.5q-10 7 -20 19q-55 62 -55 142q0 64 33 114q21 32 52 53q29 20 70 27q4 1 11.5 2t10.5 1q8 1 11 2zM471 558q-30 -1 -36 -2q1 0 6 -5.5t6 -7.5q3 -4 9 -11t10.5 -12.5t7.5 -11.5
q22 -39 23 -76q0 -17 -16 -21q-12 -3 -20 3.5t-9 19.5q-2 18 -6 29q-17 50 -63 74q-27 13 -44 16q-85 15 -139 -46q-31 -36 -31 -77q0 -13 5 -47q1 -7 -3.5 -15.5t-11.5 -10.5q-18 -6 -26 11q-13 27 -9 72q5 49 37 91q4 6 11 12q-4 0 -17 -3q-4 -2 -17 -7q-19 -7 -34 -18
q-33 -26 -47 -64q-23 -60 -2 -119q20 -53 70 -83q16 -9 27 -15q19 -10 27 -8q21 4 60 11q116 22 179 42q72 23 109 58q30 29 97 98q7 7 4 14q-19 61 -82 91q-39 19 -75 18zM355 41q108 5 166 20q83 23 154 69q55 35 93 85q41 54 48 100q8 56 -12 89q-19 32 -56 38.5
t-65 -17.5q-11 -10 -44 -43q-46 -45 -59 -59q-49 -53 -117 -77q-57 -20 -102 -31q-20 -5 -42 -9.5t-49.5 -10l-42.5 -8.5q-4 0 -16.5 -2.5t-18 -4t-15 -4t-17.5 -6t-15 -7.5q-18 -10 -22 -24.5t8 -30.5q10 -14 30 -28q31 -21 80 -27q11 -2 114 -12zM263 600l9.5 1t10 2.5
t1 10.5t-0.5 12l-1 1q-37 38 -98 45q-6 1 -8 -2q-2 -4 2 -8q12 -16 25 -27q1 -1 7.5 -6.5t8.5 -7t7 -5.5t8 -5.5l8 -4t10 -4t11 -2.5zM456 690q-19 -6 -38 -15q-49 -24 -78 -54l-3 -16q44 -3 46 -2q7 2 13 5.5t11 6.5t11.5 10t9.5 10t9.5 12t8 11t8.5 12.5t8 11.5q2 4 0 7
t-6 1zM372 117q10 0 16.5 -7t6.5 -16q0 -12 -6.5 -19.5t-17.5 -7.5q-10 0 -16.5 7t-6.5 17q0 11 7 18.5t17 7.5zM263 143q0 -11 -6.5 -18.5t-15.5 -7.5q-11 1 -17.5 8.5t-6.5 19.5q0 8 7 15.5t16 7.5q10 0 16.5 -7.5t6.5 -17.5zM677 298q-11 0 -18 6.5t-7 16.5t7 17.5
t17 7.5t17 -6.5t7 -16.5t-7 -17.5t-16 -7.5zM484 205q9 0 16 -7t7 -16t-7.5 -17.5t-16.5 -8.5t-16.5 7.5t-7.5 16.5t7.5 17t17.5 8zM656 159q-10 0 -17 7t-7 16q-1 10 6 17.5t18 7.5q9 1 15.5 -6t6.5 -17q1 -10 -6 -17.5t-16 -7.5z" />
    <glyph glyph-name="03" unicode="&#xe601;" 
d="M242 411l-124 -48l5 -21l139 62q-2 1 -10.5 3.5t-9.5 3.5zM937 493q0 47 -91 83l-14 -6q96 -34 96 -77q0 -32 -54 -60t-146 -44.5t-198 -16.5q-94 0 -180 14l-221 -73q36 -113 147.5 -186.5t253.5 -73.5q113 0 208.5 46.5t151 127t55.5 174.5q0 51 -8 87v5zM179 435
q-20 12 -33 28t-13 30q0 32 54 60t145.5 44t197.5 16h25l20 9q-21 1 -45 1q-112 0 -205.5 -17.5t-147.5 -47t-54 -65.5q0 -3 1 -4q-5 -24 -8 -84zM862 727l-789 -352l807 309zM949 644l-18 43l-789 -352z" />
    <glyph glyph-name="shuichan" unicode="&#xe61a;" 
d="M1005 306q-6 -1 -22 14t-24 14q-9 0 -46.5 -25.5t-50.5 -28.5q-12 -2 -37 -2t-51.5 1l-26.5 1q-8 0 -16.5 11.5t-6.5 22.5t5 14t20 11l184 128q3 1 8 3t17.5 1.5t23.5 -9.5q5 -12 15 -44.5t16.5 -59t6.5 -27.5q-3 -23 -15 -25v0zM747 390q-10 -6 -24 -6t-20 6
q-3 4 -10 18t-12 26l-6 12q0 2 -1 4.5t-2.5 11.5t1.5 17l138 192q0 1 1.5 3t6.5 6t10 6t12 0.5t13 -7.5q9 -9 29 -32t35 -42l15 -18q3 -3 5.5 -7.5t3 -16t-8.5 -20.5q-12 -14 -93.5 -80t-92.5 -73v0zM645 523q-1 -1 -3 -2t-8.5 -3.5t-12.5 -3.5t-14.5 -0.5t-15.5 4.5
q-23 8 -154 80t-160 93q-11 9 -48.5 38.5t-69 53.5t-53.5 36l-102 61q8 2 22.5 4.5t57.5 6.5t83.5 5t92.5 -4t94 -17q-2 -5 -2 -11.5t1 -10.5l1 -3q23 12 38 12t355 -132q3 -4 7.5 -9.5t10.5 -17.5t2 -19l-122 -161v0zM277 852q-13 0 -23 -10t-10 -23t10 -23t23 -10t23 10
t10 23q0 15 -9.5 24t-23.5 9v0zM262 663q12 0 -5 -18q-62 -46 -74 -51q-7 -2 -23.5 -3t-30.5 -2h-13q46 13 64 28q14 13 43.5 29.5t38.5 16.5v0zM310 645q6 2 11.5 -5t8.5 -15l3 -8q-56 -7 -76 -23q34 48 53 51v0zM170 487q-2 14 10 32.5t23 16.5q-6 18 6 30t27 -2
q24 -24 69 -164q11 -35 19 -100t10 -102.5t2 -47.5q-2 -31 -18.5 -58t-30.5 -31q-11 4 -125 229q-4 12 1 20.5t14 2.5q6 -3 18 -19t22 -30l9 -14q-66 145 -77 168q-7 16 2.5 42.5t18.5 26.5v0zM405 165l71 -38q23 -13 31 -30l15 -174q-5 -21 -15 -23q-6 -3 -38.5 5t-72 27.5
t-55.5 43.5q-15 25 -15 59q0 10 35 107v0q1 2 2 4.5t4 9t8 9.5t12.5 5t17.5 -5v0zM583 165q-2 -5 -9 -9.5t-13 -6.5l-6 -1q1 2 1.5 6.5t-0.5 17t-4.5 24.5t-12 27t-22.5 27l5.5 -2.5t15 -8.5t18.5 -15t17 -24.5t10 -34.5v0zM573 94q21 -10 31 -20q4 -5 31.5 -36.5t53 -60.5
l25.5 -29q0 -1 1.5 -2.5t3.5 -6.5t3.5 -9t0.5 -8.5t-4 -6.5q-13 -7 -113 -41q-33 -7 -33 11q0 15 -6 77t-9 76q-11 18 -10.5 42t25.5 14v0zM650 191l-26 -23q0 4 -1 11.5t-13.5 28t-33.5 37.5q1 1 15.5 -6.5t32.5 -21t26 -26.5v0zM578 428q-12 0 -42.5 -3.5t-55.5 -7.5
l-24 -4q107 56 130 56q10 0 28 -11.5t35.5 -26.5t18.5 -15q4 -3 -10 -10l-16 -6v0q-36 28 -64 28v0zM673 216q-2 2 -17.5 21.5t-33 40t-28.5 28.5l-87 59q82 -18 107 -39q11 -10 29 -30t30 -34l13 -15q-1 -2 -1.5 -6t-2.5 -12t-4.5 -11.5t-4.5 -1.5v0zM619 130q6 5 15.5 13
t16.5 13l7 4q28 3 46 -5q9 -3 54 -25t86 -41.5t41 -20.5q1 0 3 -1.5t6 -6t6 -8t2 -8.5t-4 -9q-7 -5 -32.5 -27t-48 -41l-22.5 -19q-25 -15 -38 0.5t-138 142.5v0q-15 23 0 39v0zM706 237q10 8 20 8q6 0 62.5 1.5t111 3.5l54.5 2q2 -1 14.5 1t26 -5.5t12.5 -23.5
q-5 -26 -18.5 -64t-19.5 -46q-14 -14 -36 -10q-10 2 -115 41.5t-115 45.5q-6 3 -10.5 9t-2.5 16t16 21v0zM706 237z" />
    <glyph glyph-name="yeleaves3" unicode="&#xe69d;" 
d="M446 462q-24 -43 -34 -95q-20 37 -47.5 68t-54.5 45q44 -84 96 -155q-1 -10 -2 -19v-1v0v-1v0v-1v0v-1v-1v-2v-2v-3v-2v-1v-2v0v-1v0v-1v-1v0v-1v0v0v-1v-1v-1v0v-1v0v-1v0v-1v0v-1l-1 -1v-1v-5h1q0 -22 2 -47q-36 35 -91.5 60t-98.5 23q47 -30 102 -59t89 -41l4 -34
q-42 -18 -75.5 -19t-55 8.5t-42.5 32t-34 45t-33.5 54.5t-36.5 53q79 28 139 27q-7 27 -9 89t-7 92q139 -23 189 -93zM890 615q-18 -51 -40 -154q-9 -39 -13.5 -59t-15 -54.5t-20 -52t-26 -43t-36 -37.5t-47.5 -26.5t-61.5 -18.5t-77.5 -3.5t-97 8.5q-11 65 -7 123t19 107.5
t49.5 88.5t84 66.5t123 41.5t165.5 13zM776 501q-84 -25 -173.5 -118t-112.5 -178q41 26 128.5 116.5t157.5 179.5z" />
    <glyph glyph-name="yanjing-copy-copy-copy-copy" unicode="&#xe64b;" 
d="M512 647q-60 0 -117.5 -15.5t-100 -39t-82.5 -55.5t-64.5 -58t-46.5 -55t-28 -39t-10 -16v0q4 -5 10.5 -14t29.5 -34.5t48.5 -49t66 -52t83 -49t98.5 -34.5t113 -14t113 13.5t99 35.5t82 48.5t66.5 52.5t48 48t30.5 35.5l10 13.5q-3 6 -9 16t-26 39t-44 55t-63 58
t-82 55.5t-102.5 39t-122.5 15.5zM512 226q-67 0 -114.5 46.5t-47.5 112t47.5 111.5t114.5 46t114.5 -46t47.5 -111.5t-47.5 -112t-114.5 -46.5zM512 449q-29 0 -50 -20.5t-21 -50t21 -50t50 -20.5t50 20.5t21 50t-21 50t-50 20.5z" />
    <glyph glyph-name="huizhang1" unicode="&#xe602;" 
d="M894 443l-9 -22q-9 -22 -6 -46l4 -24q3 -22 -6 -46t-26 -38l-19 -16q-19 -15 -26 -38l-8 -22q-3 -8 -7 -15l85 -145h-126l-60 -91l-76 129q-29 -10 -55 -3l-24 7q-23 6 -46 0l-24 -7q-27 -8 -58 4l-76 -130l-61 91h-125l87 148q-4 6 -6 12l-8 22q-7 23 -26 38l-19 16
q-17 14 -26 38t-6 46l4 24q3 24 -6 46l-9 22q-9 21 -6 46.5t17 43.5l14 19q15 20 17 44l2 24q2 22 16.5 43t35.5 31l21 11q9 4 19.5 13t15.5 17l13 20q13 19 35.5 31t45.5 11h24q24 -1 45 11l21 12q20 11 46 11t46 -11l21 -12q21 -12 45 -11h24q23 1 45.5 -11t35.5 -31
l13 -20q5 -8 15.5 -17t19.5 -13l21 -11q21 -10 35.5 -31t16.5 -43l2 -24q2 -24 17 -44l14 -19q14 -18 17 -43.5t-6 -46.5zM512 757q-131 0 -224 -92t-93 -222.5t93 -222.5t224 -92t224 92t93 222.5t-93 222.5t-224 92zM512 161q-117 0 -200 82.5t-83 199t83 199t200 82.5
t200 -82.5t83 -199t-83 -199t-200 -82.5z" />
    <glyph glyph-name="fenlei" unicode="&#xe668;" 
d="M470 506q0 -33 -23.5 -56.5t-56.5 -23.5h-246q-33 0 -56.5 23.5t-23.5 56.5v246q0 33 23.5 56.5t56.5 23.5h246q33 0 56.5 -23.5t23.5 -56.5v-246v0v0zM960 506q0 -33 -23.5 -56.5t-56.5 -23.5h-246q-33 0 -56.5 23.5t-23.5 56.5v246q0 33 23.5 56.5t56.5 23.5h246
q33 0 56.5 -23.5t23.5 -56.5v-246v0zM470 16q0 -33 -23.5 -56.5t-56.5 -23.5h-246q-33 0 -56.5 23.5t-23.5 56.5v246q0 33 23.5 56.5t56.5 23.5h246q33 0 56.5 -23.5t23.5 -56.5v-246v0v0zM554 139q0 -84 59.5 -143.5t143.5 -59.5t143.5 59.5t59.5 143.5v0q0 84 -59.5 143.5
t-143.5 59.5t-143.5 -59.5t-59.5 -143.5v0z" />
    <glyph glyph-name="shiliangzhinengduixiang1" unicode="&#xe6df;" horiz-adv-x="1067" 
d="M117 176v0q18 -20 54 -27t79.5 -2t75.5 12t63 16q-45 29 -63 65q-9 16 -11.5 36t8.5 35.5t37 12.5q41 -5 76.5 -5.5t63.5 1.5t53 11t42.5 16.5t36 23.5t29.5 27t25 32.5t21.5 33.5t21.5 36q21 36 32 55t34.5 50.5t45.5 51t55.5 41t72.5 36.5q-31 51 -82.5 71t-108 11.5
t-117.5 -34.5t-112.5 -63.5t-91 -79.5t-55.5 -78q-11 -29 -40 -29q-16 0 -28.5 12.5t-12.5 28.5q4 60 22 136q-42 -38 -71 -89q-57 -99 -32 -188v0q3 -13 -1.5 -25.5t-15.5 -19.5q-14 -9 -30.5 -5.5t-26.5 17.5q-5 7 -17.5 25.5t-21 32t-15.5 26.5q-18 -50 -26 -101.5
t-1 -107.5t32 -98zM347 -119v0h425q11 0 18 7t7 17.5t-7 17.5t-18 7h-425q-10 0 -17.5 -7t-7.5 -17t7.5 -17.5t17.5 -7.5zM47 132q-39 67 -45.5 156t16.5 172t67 149q9 14 26 17.5t31 -6.5q14 -9 17 -24v0l6 -21q14 47 36 86q35 62 89 110t114 71q16 6 31.5 -1t21.5 -22
q5 -16 -1 -32q-12 -26 -21 -54q97 88 214 132q63 23 124 28.5t117.5 -7.5t102.5 -54.5t71 -107.5q6 -16 -1 -31.5t-23 -21.5l-4 -2q-39 -10 -72.5 -28t-55.5 -35.5t-44.5 -47t-33.5 -47.5t-30 -52q-19 -33 -29.5 -50t-31 -45.5t-37.5 -43.5t-44.5 -34.5t-56.5 -29t-69 -16
t-87 -5.5q24 -11 60 -22q16 -5 24 -20t3 -31.5t-20 -23.5q-54 -31 -124 -50.5t-144 -23t-133 19.5q-43 -63 -23 -154v0h113q10 0 17 -7t7 -17.5t-7 -17.5t-17 -7h-122h-23h-4q-15 -1 -28 8t-17 25q-26 125 40 218v0z" />
    <glyph glyph-name="shippingdefault" unicode="&#xe603;" 
d="M512 830q-91 0 -173.5 -35t-142 -95t-95 -142.5t-35.5 -173t35.5 -173t95 -142.5t142 -95t173.5 -35t173.5 35t142 95t95 142.5t35.5 173t-35.5 173t-95 142.5t-142 95t-173.5 35zM511.5 -37q-114.5 0 -211.5 56.5t-153 153.5t-56 211.5t56 211.5t153 153t211.5 56
t211.5 -56t153.5 -153t56.5 -211.5t-56.5 -211.5t-153.5 -153.5t-211.5 -56.5zM542 513q-8 8 -18 8t-17 -8l-228 -227q-7 -7 -7 -17.5t7 -18t17.5 -7.5t17.5 8l210 210l210 -210q8 -8 18 -8t17.5 7.5t7.5 18t-8 17.5z" />
    <glyph glyph-name="cuo" unicode="&#xe604;" 
d="M276.5 131q-6.5 0 -11.5 5q-11 12 0 23l469 469q12 12 23.5 0.5t-0.5 -23.5l-469 -469q-5 -5 -11.5 -5zM745.5 131q-6.5 0 -11.5 5l-469 469q-12 12 -0.5 23.5t23.5 -0.5l469 -469q12 -11 0 -23q-5 -5 -11.5 -5z" />
    <glyph glyph-name="dan" unicode="&#xe83e;" 
d="M1020 516q-13 -74 -24 -112q-1 -2 -5 -20t-6 -29t-4 -28.5t1 -18.5q27 -62 21 -160q-6 -83 -45 -146q-40 -64 -116 -94t-167 -33q-52 -5 -105 0q-97 6 -174 24q-75 18 -137 41q-105 47 -170 133q-67 87 -82 195q-31 175 75 317q87 109 256 191q174 84 300 109
q233 45 327 -92q44 -64 55 -144q7 -44 0 -133zM324 336q-7 20 -7 30q0 38 21 69q19 29 54 41h4q7 3 20 3q12 0 20 8t8 19t-9.5 19.5t-21.5 8.5q-10 0 -38 -7h-3q-46 -14 -82 -62q-31 -41 -31 -99q0 -23 11 -44q2 -10 12.5 -15t21.5 -2q12 0 18.5 10t1.5 21zM426 581
q-92 0 -156.5 -62.5t-64.5 -152.5q0 -89 65 -151.5t160 -62.5q92 0 158.5 62.5t66.5 151.5q-3 90 -68.5 152.5t-160.5 62.5zM894 629q-12 56 -38 95q-49 74 -194 41q-103 -19 -270 -99q-141 -67 -208 -156q-75 -101 -54 -225q10 -76 58 -140q50 -60 126 -96q43 -21 112 -34
q77 -15 154 -20h85q144 8 184 68q21 33 28 92q6 64 -14 109q-22 51 10 164q2 11 7 32t8.5 38t5.5 32q6 68 0 99z" />
    <glyph glyph-name="sousuo-sousuo" unicode="&#xe614;" 
d="M717 682q-69 69 -160.5 93t-183 0t-160 -92.5t-92.5 -160t0 -183t93 -160.5q51 -51 117.5 -77.5t134 -26.5t134 26.5t117.5 77.5v0q68 69 92.5 160.5t0 183t-92.5 159.5v0zM136.5 102q-89.5 89 -121.5 209t0 239.5t121.5 209t209 121.5t239.5 0t209.5 -121.5t121 -209
t0 -239.5t-121 -209t-209.5 -121t-239.5 0t-209 121zM1005.5 -109.5q-18.5 -18.5 -45 -18.5t-45.5 19l-89 89q-19 19 -19 45.5t18.5 45t45 18.5t44.5 -19l90 -90q19 -18 19 -44.5t-18.5 -45z" />
    <glyph glyph-name="zhineng" unicode="&#xe60e;" 
d="M889 420h-14q-6 56 -27 108q-28 67 -78 119q-51 53 -116 81q-68 29 -142 29t-142 -29q-65 -28 -116 -81q-41 -41 -66 -93l-22 22l-34 -50l36 -18q-4 -14 -9 -30h-34l8 -58l17 6q0 -1 -0.5 -3t-0.5 -3h-14q-9 0 -15.5 -7t-6.5 -16v-72q0 -9 6.5 -15.5t15.5 -6.5h27
q9 0 15.5 6.5t6.5 15.5v72q0 10 -7 17q1 13 3 23l28 10q-7 -32 -7 -66q0 -21 3 -42l3 -5q47 -77 124 -121q60 -34 129 -41q9 13 24 13h57q12 0 20 -8.5t8 -20.5v0q0 -13 -8 -21.5t-20 -8.5h-57q-18 0 -26 16q-75 8 -140 45q-54 30 -95 77q33 -86 107 -141.5t167 -59.5
l-23 -52q171 83 174 85q77 40 124.5 116.5t47.5 168.5q0 132 -91 225.5t-219 93.5q-93 0 -169 -52t-113 -136l-19 20q25 52 65 94q47 48 107 74q62 28 130.5 28t131.5 -28q60 -26 107 -74t72 -110q20 -49 25 -103q-7 -7 -7 -16v-72q0 -9 6.5 -16t15.5 -7h27q9 0 15.5 7
t6.5 16v72q0 9 -6.5 16t-15.5 7zM510 526q115 0 196.5 -37t81.5 -89t-81.5 -88.5t-196.5 -36.5t-196.5 36.5t-81.5 88.5t81.5 89t196.5 37zM217 484l-1 -6h-27q2 9 5 17zM606 383l88 -17q7 -2 11.5 2.5t4.5 11.5q-5 42 -24 51q-18 8 -83 -23q-8 -4 -7 -13.5t10 -11.5z
M336 366l88 17q9 2 10 11.5t-7 13.5q-65 31 -83 23q-19 -9 -23 -51q-1 -7 4 -11.5t11 -2.5z" />
    <glyph glyph-name="huangguan" unicode="&#xe687;" 
d="M742 54h-462q-17 0 -29.5 -13.5t-12.5 -33.5t12.5 -34t29.5 -14h462q18 0 30 14t12 34t-12 33.5t-30 13.5zM944 587q-5 6 -12 10q-24 18 -55 18q-40 0 -68.5 -29t-28.5 -70q0 -50 40 -80q-14 -17 -30 -33.5t-41 -34.5t-38 -14q-16 5 -28 36.5t-18 75.5t-8 69t-3 42
q35 5 58.5 32.5t23.5 64.5q0 41 -28.5 70t-69 29t-68.5 -29t-28 -70v0q0 -25 15 -50.5t36 -36.5q-6 -16 -14 -33.5t-20.5 -42.5t-25.5 -40.5t-24 -15.5q-10 0 -23.5 16.5t-26 42t-20 42.5t-12.5 32q20 12 34 37t14 49v0q0 41 -28.5 70t-68.5 29t-68.5 -29t-28.5 -70
q0 -32 18.5 -57.5t47.5 -35.5q8 -4 18 -5q-1 -8 -2.5 -22t-7 -49.5t-12 -63.5t-17.5 -52t-24 -27q-16 -4 -39.5 11.5t-36.5 30.5t-25 31q17 13 29 36.5t12 44.5v0q0 41 -28.5 70t-68.5 29q-12 0 -23 -3q-45 -5 -63 -50q-11 -21 -11 -46q0 -33 20 -60q11 -16 28 -25
q23 -14 49 -14q6 0 15 1q3 -20 10 -58t20 -95.5t32.5 -98.5t39.5 -42h498q13 0 26 16t23 41t19.5 55.5t16 61t11.5 55.5t7.5 41l2.5 16l1 8q5 -1 10 -1q26 0 48 13q31 11 39 43q10 20 10 43v0v0q0 18 -8.5 38.5t-21.5 32.5z" />
    <glyph glyph-name="huo" unicode="&#xe698;" 
d="M778 605q-31 -13 -56.5 -38t-39.5 -50.5t-23.5 -49t-14 -38.5t-6.5 -15q-5 24 -22.5 47t-36 40t-38.5 45.5t-31 64t-13 94.5t16 138q-72 -53 -110 -106.5t-43 -119.5q-2 -37 7.5 -86t20.5 -84t10.5 -71t-21.5 -57q-6 5 -7 23t-2.5 44.5t-8.5 43.5q-6 13 -16 25.5
t-21.5 23t-20.5 17.5t-20 14.5t-13 8.5q13 -40 13 -76.5t-10 -63t-24 -53.5t-29.5 -49t-26 -49.5t-13.5 -54.5t7.5 -63t36.5 -77q32 -50 120.5 -79t198.5 -23t192 51q47 30 82.5 78.5t35.5 88.5q6 42 -2.5 85t-25 77t-33 72t-28 70.5t-8.5 72.5t24 79zM413 14
q-15 25 -13.5 39t6 30t2.5 24q19 10 22.5 27t-10.5 53q20 -19 33 -28t19.5 -8t9.5 8.5t3.5 20.5t-0.5 29q0 28 0.5 44t7 38.5t20.5 33.5q15 -66 49 -118t71 2q-1 -27 6 -50t14 -35.5t9.5 -37t-7.5 -54.5q-32 -58 -120 -65q-35 -2 -68 11t-54 36z" />
  </font>
</defs>
</svg>
